<?xml version="1.0" encoding="UTF-8" standalone="no"?>
<svg
   width="176"
   height="166"
   viewBox="0 0 176 166"
   fill="none"
   version="1.1"
   id="svg23"
   sodipodi:docname="Group 1.svg"
   inkscape:version="1.1 (c68e22c387, 2021-05-23)"
   xmlns:inkscape="http://www.inkscape.org/namespaces/inkscape"
   xmlns:sodipodi="http://sodipodi.sourceforge.net/DTD/sodipodi-0.dtd"
   xmlns="http://www.w3.org/2000/svg"
   xmlns:svg="http://www.w3.org/2000/svg">
  <defs
     id="defs27" />
  <sodipodi:namedview
     id="namedview25"
     pagecolor="#505050"
     bordercolor="#eeeeee"
     borderopacity="1"
     inkscape:pageshadow="0"
     inkscape:pageopacity="0"
     inkscape:pagecheckerboard="0"
     showgrid="false"
     inkscape:zoom="3.335329"
     inkscape:cx="28.632858"
     inkscape:cy="95.492829"
     inkscape:window-width="1920"
     inkscape:window-height="1001"
     inkscape:window-x="-9"
     inkscape:window-y="-9"
     inkscape:window-maximized="1"
     inkscape:current-layer="svg23" />
  <path
     id="path19"
     d="m 88.189409,6.2962305 c -38.9513,0 -70.5,31.5486995 -70.5,70.4999995 0,31.196 20.181278,57.54572 48.205078,66.88672 3.525,0.617 4.845703,-1.49861 4.845703,-3.34961 0,-1.674 -0.08789,-7.22491 -0.08789,-13.12891 -17.7131,3.26 -22.295078,-4.32015 -23.705079,-8.28515 -0.793099,-2.027 -4.230262,-8.28303 -7.226562,-9.95703 -2.4675,-1.322 -5.992291,-4.58378 -0.08789,-4.67188 5.5519,-0.0881 9.517944,5.11156 10.839844,7.22656 6.345,10.663 16.479503,7.66641 20.533203,5.81641 0.6169,-4.583 2.467241,-7.66669 4.494141,-9.42969 -15.6863,-1.7624 -32.078125,-7.84239 -32.078125,-34.808592 0,-7.6669 2.732162,-14.012265 7.226562,-18.947266 -0.7051,-1.7625 -3.172421,-8.98794 0.705078,-18.68164 0,0 5.903519,-1.850238 19.386719,7.226562 5.6399,-1.5862 11.6325,-2.380859 17.625,-2.380859 5.9925,0 11.985,0.794659 17.625,2.380859 13.4827,-9.165 19.38867,-7.226562 19.38867,-7.226562 3.877,9.6937 1.41008,16.919141 0.70508,18.68164 4.494,4.935001 7.22461,11.192266 7.22461,18.947266 0,27.054302 -16.47786,33.046192 -32.16406,34.808592 2.5556,2.203 4.75781,6.43297 4.75781,13.04297 0,9.429 -0.0879,17.00772 -0.0879,19.38672 0,1.851 1.32266,4.05461 4.84766,3.34961 5.36712,-1.81153 10.46023,-4.25594 15.1914,-7.25195 l 1.34961,-7.85938 0.22071,-1.29492 -0.94141,-0.91797 -15.96485,-15.56641 c -0.0542,-0.053 -0.0849,-0.12517 -0.0859,-0.20117 -0.001,-0.074 0.0273,-0.14522 0.0781,-0.19922 0.0479,-0.047 0.1016,-0.0721 0.1543,-0.0801 h 0.006 l 22.06836,-3.20703 1.30078,-0.18945 0.58203,-1.17969 9.85742,-19.986325 c 0,-10e-4 0.002,-0.0029 0.002,-0.0039 0.076,-0.148 0.25276,-0.197613 0.38476,-0.132813 l 0.002,0.002 c 0.053,0.0258 0.0951,0.06859 0.1211,0.121094 l 0.002,0.002 8.58594,17.408204 c 3.35245,-8.328928 5.11205,-17.267722 5.11328,-26.34961 0,-38.9513 -31.549,-70.4999995 -70.500001,-70.4999995 z"
     style="fill:#6b59da;fill-opacity:1" />
  <path
     d="m 171.71872,111.95637 c 7.9e-4,0 0.002,0 0.002,7.9e-4 0.14101,0.0214 0.20597,0.1418 0.19172,0.23766 l -0.002,0.0111 -0.002,0.0111 c -0.006,0.042 -0.0261,0.0856 -0.0642,0.12438 -8e-4,0 -8e-4,7.9e-4 -0.002,7.9e-4 l -12.64428,12.3282 -0.74546,0.72724 0.17586,1.02589 2.98818,17.41333 v 0.002 c 0.0198,0.11487 -0.0563,0.23053 -0.18141,0.25192 l -0.003,7.9e-4 c -0.0499,0.009 -0.0982,-0.002 -0.12755,-0.0174 l -0.009,-0.005 -15.63721,-8.22144 -0.92133,-0.48403 -0.92133,0.48403 -15.63721,8.22144 -0.002,0.002 c -0.0364,0.019 -0.0776,0.0277 -0.11804,0.0245 -0.0412,-0.002 -0.0808,-0.0166 -0.11328,-0.0412 -0.0333,-0.0238 -0.0594,-0.057 -0.0745,-0.0951 -0.0158,-0.038 -0.0198,-0.0792 -0.0135,-0.11963 l 8e-4,-0.002 2.98817,-17.41333 0.17587,-1.02589 -0.74546,-0.72724 -12.64809,-12.33137 h -1.6e-4 c -0.0429,-0.042 -0.0675,-0.099 -0.0683,-0.15923 -7.9e-4,-0.0586 0.0214,-0.11566 0.0616,-0.15844 0.0379,-0.0372 0.0813,-0.057 0.12303,-0.0634 l 0.005,-7.9e-4 17.48153,-2.54058 1.03065,-0.14973 0.46106,-0.934 7.81029,-15.833438 c 0,-7.93e-4 7.9e-4,-0.0016 7.9e-4,-0.0024 0.0602,-0.117245 0.20043,-0.157093 0.305,-0.105759 l 0.002,0.0011 c 0.042,0.02044 0.0753,0.05419 0.0959,0.09578 l 7.9e-4,0.0017 7.81504,15.843027 0.46106,0.934 1.03065,0.14973 z"
     fill="#6b59da"
     stroke="#ffffff"
     stroke-width="3.96099"
     id="path21"
     sodipodi:nodetypes="cccccccccccccccccccccccccccccccscccccccccccccccc"
     style="fill:#6b59da;fill-opacity:1;stroke:none" />
  <rect
     style="fill:none;fill-opacity:1;stroke:none;stroke-width:1.10153"
     id="rect8481"
     width="172.80011"
     height="151.70917"
     x="1.8221228"
     y="6.2962303" />
</svg>
