<svg width="20" height="20" viewBox="0 0 20 20" fill="none" xmlns="http://www.w3.org/2000/svg">
<path d="M10 0C4.48 0 0 4.48 0 10C0 15.52 4.48 20 10 20C15.52 20 20 15.52 20 10C20 4.48 15.52 0 10 0ZM11.41 16.09V18H8.74V16.07C7.03 15.71 5.58 14.61 5.47 12.67H7.43C7.53 13.72 8.25 14.54 10.08 14.54C12.04 14.54 12.48 13.56 12.48 12.95C12.48 12.12 12.04 11.34 9.81 10.81C7.33 10.21 5.63 9.19 5.63 7.14C5.63 5.42 7.02 4.3 8.74 3.93V2H11.41V3.95C13.27 4.4 14.2 5.81 14.26 7.34H12.3C12.25 6.23 11.66 5.47 10.08 5.47C8.58 5.47 7.68 6.15 7.68 7.11C7.68 7.95 8.33 8.5 10.35 9.02C12.37 9.54 14.53 10.41 14.53 12.93C14.52 14.76 13.15 15.76 11.41 16.09Z" fill="white" fill-opacity="0.56"/>
</svg>
