<?xml version="1.0" encoding="iso-8859-1"?>
<!-- Generator: Adobe Illustrator 19.0.0, SVG Export Plug-In . SVG Version: 6.00 Build 0)  -->
<svg version="1.1" id="Capa_1" xmlns="http://www.w3.org/2000/svg" xmlns:xlink="http://www.w3.org/1999/xlink" x="0px" y="0px"
	 viewBox="0 0 389.76 389.76" style="enable-background:new 0 0 389.76 389.76;" xml:space="preserve">
<g>
	<g>
		<path d="M358.24,75.9H217.68l-28-33.16c-0.924-1.096-2.286-1.726-3.72-1.72H72.64c-17.408,0-31.52,14.112-31.52,31.52v9.2h-9.6
			C14.128,81.74,0.022,95.828,0,113.22v204c0,17.408,14.112,31.52,31.52,31.52h285.6c17.408,0,31.52-14.112,31.52-31.52v-9.2h9.6
			c17.408,0,31.52-14.112,31.52-31.52V107.42C389.76,90.012,375.648,75.9,358.24,75.9z M338.88,298.54v18.88
			c-0.022,12.031-9.769,21.778-21.8,21.8H31.52c-12.031-0.022-21.778-9.769-21.8-21.8v-204c0.022-12.031,9.769-21.778,21.8-21.8
			h111.36l28,33.16c0.924,1.096,2.286,1.726,3.72,1.72h142.8c11.844,0.195,21.373,9.795,21.48,21.64L338.88,298.54z M380,276.74
			c-0.022,12.031-9.769,21.778-21.8,21.8h-9.6v-150.4c0-17.408-14.112-31.52-31.52-31.52H176.56l-28-33.16
			c-0.924-1.096-2.286-1.726-3.72-1.72H50.88v-9.2c0.022-12.031,9.769-21.778,21.8-21.8h111.2l28,33.16
			c0.924,1.096,2.286,1.726,3.72,1.72h142.8c12.031,0.022,21.778,9.769,21.8,21.8L380,276.74z"/>
	</g>
</g>
<g>
</g>
<g>
</g>
<g>
</g>
<g>
</g>
<g>
</g>
<g>
</g>
<g>
</g>
<g>
</g>
<g>
</g>
<g>
</g>
<g>
</g>
<g>
</g>
<g>
</g>
<g>
</g>
<g>
</g>
</svg>
